<svg xmlns="http://www.w3.org/2000/svg" viewBox="0 0 136.24 137.85"><defs><style>.a{fill:#fff;}.b{fill:#e3000f;}.c{fill:#d9dada;}.d{fill:#d95132;}.e{fill:#be1421;}.f{fill:#575656;}.g{fill:#292e88;}.h{fill:#9089c2;}.i{fill:#1a1a18;}</style></defs><title>lighthouse</title><path class="a" d="M437.56 635.75l-5.94-94h2a1.9 1.9 0 0 0 1.92-1.89v-.51a1.91 1.91 0 0 0-1.92-1.92h-2.41v-2.83l52.13 10.26a67.74 67.74 0 0 0-16.92-25.86l-35.21 6.21v-.59a8.48 8.48 0 0 0-8.58-8.76h-4.09a8.75 8.75 0 0 0-8.9 8.76v1.38l-37-6.37a68.79 68.79 0 0 0-15.76 23l52.83-8.88v3.77h-2.41a1.91 1.91 0 0 0-1.92 1.92v.51a1.91 1.91 0 0 0 1.92 1.89h2.43l-5.24 94.73.11.18a67.21 67.21 0 0 0 33-.78v-.17z" transform="translate(-351.39 -500.55)"/><path class="b" d="M81.15 59.31l-24.15 3.25-1.1 18.77 26.24-3.63-.99-18.39zm-27.4 58.72l30.33-4.17-.99-18.39-28.25 3.93-1.09 18.63z"/><path class="c" d="M68.92 125.94c4.31 0 4.26 2.31 4.26 5.16v6.75c0 .06 9-1.06 13-2.62l-1.19-21.37-16.05 2v10zm0-65.01l12.49-1.62-.97-18.04h-11.52v19.66zm0 36.51l14.75-1.97-1-17.77-13.75 1.85v17.89z"/><path class="a" d="M69.23 137.65c.84 0 1.67 0 2.49-.05l-2.49.05z"/><path class="d" d="M82.14 77.7l-.99-18.39.99 18.39z"/><path class="e" d="M68.92 79.55l13.66-1.85-1.03-18.39-12.63 1.62v18.62z"/><path class="d" d="M83.09 95.47l.99 18.39"/><path class="e" d="M68.92 115.97l15.83-2.11-1.03-18.39-14.8 1.97v18.53z"/><path class="f" d="M418.53 515.92a8.74 8.74 0 0 0-8.91 8.75v12.83h-2.41a1.9 1.9 0 0 0-1.9 1.9v.51a1.9 1.9 0 0 0 1.9 1.9h13.2v-25.89z" transform="translate(-351.39 -500.55)"/><path class="g" d="M422.61 515.92a8.47 8.47 0 0 1 8.59 8.75v.59l35.32-6.26a66.15 66.15 0 0 0-46.21-18.48v15.37h2.3zm60.71 28.97l-52.12-10.28v2.89h2.42a1.9 1.9 0 0 1 1.9 1.9v.51a1.9 1.9 0 0 1-1.9 1.9h-2l5.94 94a68.92 68.92 0 0 0 50.09-66.29 71.52 71.52 0 0 0-4.32-24.58z" transform="translate(-351.39 -500.55)"/><path class="h" d="M372.57 519.69l37.05 6.36v-1.38a8.74 8.74 0 0 1 8.91-8.75h1.78v-15.37a68.62 68.62 0 0 0-47.74 19.14zm32.74 20.22v-.51a1.9 1.9 0 0 1 1.9-1.9h2.41v-3.77l-52.83 8.88a69.05 69.05 0 0 0 47.6 93.93l5.26-94.73h-2.44a1.9 1.9 0 0 1-1.9-1.9z" transform="translate(-351.39 -500.55)"/><path class="i" d="M435.52 539.91v-.51a1.9 1.9 0 0 0-1.9-1.9h-2.42v-12.83a8.47 8.47 0 0 0-8.59-8.75h-2.2v25.89h13.21a1.9 1.9 0 0 0 1.9-1.9z" transform="translate(-351.39 -500.55)"/></svg>