<svg xmlns="http://www.w3.org/2000/svg" viewBox="0 0 646.91 64.61"><defs><style>.a{fill:#263b97;}.b{fill:#fff;}.c{fill:#ed1c24;}.d{fill:#d1d3d4;}.e{fill:#da593c;}.f{fill:#be1e2d;}.g{fill:#58595b;}.h{fill:#8786c0;}.i{fill:#231f20;}</style></defs><title>logo_guardian360</title><path class="a" d="M62.66 69.7a38 38 0 0 1-13.66 2.42q-28.45 0-28.45-27.29 0-25.83 27.45-25.83a47.34 47.34 0 0 1 14.65 2.19v5.86a38.93 38.93 0 0 0-13.91-2.56q-21.43 0-21.43 20.32 0 21.8 21.1 21.79a36.36 36.36 0 0 0 7.47-.87v-17.73h6.77z" transform="translate(-20.55 -12.39)"/><path class="a" d="M52.92 39.15v-32.16h6.77v32.16q0 15.08 15 15.08t15-15.08v-32.16h6.76v32.16q0 20.58-21.78 20.58t-21.75-20.58zm57.38 20.21h-7l22.23-52.37h7.51l22.33 52.37h-7.5l-6.78-16.48h-17.35l1.87-5.49h13.18l-9.78-23.73zm52.15 0v-52.37h22.33q15 0 14.95 12.56 0 10.22-14.62 15.13l18 24.68h-8.94l-16.63-23.55v-4.43q15-2.37 15-11.53 0-7.26-8.35-7.25h-14.93v46.76zm47.83 0v-52.37h19q26 0 26 24.76 0 27.61-26 27.61zm19-5.49q19.23 0 19.23-22.12 0-19.26-19.23-19.26h-12.23v41.38zm43.8-46.88v52.37h-6.77v-52.37zm15.27 52.37h-7l22.2-52.37h7.51l22.39 52.37h-7.51l-6.78-16.48h-17.37l1.87-5.49h13.18l-9.77-23.73zm52.19 0v-52.37h6.77l32.05 42.19v-42.19h6.4v52.37h-6.77l-32-42.55v42.55z"/><path class="a" d="M506.07 21.21a50.92 50.92 0 0 1 14.65-2.21q18.85 0 18.86 14.28 0 9.38-8.72 11.9 8.71 2.38 8.72 11.9 0 15-18.86 15a50.93 50.93 0 0 1-14.65-2.2v-3.62a44.07 44.07 0 0 0 14.65 2.56q15 0 15-11.72 0-10.24-12.15-10.25h-12v-3.3h11.91q12.25 0 12.26-10.25 0-11-15-11a44.09 44.09 0 0 0-14.65 2.57zm42.48 30.4q0-20.35 24.1-33.8l1.68 2.82q-16.08 9.63-19.92 19.74a39.49 39.49 0 0 1 13-2.31q19.18 0 19.19 16.48 0 17.58-18.79 17.58-19.26 0-19.26-20.51zm19.63 17.21q14.76 0 14.76-14.28 0-13.18-15.46-13.18a37.6 37.6 0 0 0-14.06 2.49c-.93 1.7-1.39 4.22-1.39 7.54q-.03 17.43 16.15 17.43z" transform="translate(-20.55 -12.39)"/><path class="a" d="M573.78 33.25q0-26.64 22.67-26.64 22.23 0 22.23 26.62t-22.23 26.5q-21.51 0-22.67-26.48zm22.67 23.18q18 0 18-23.4 0-23.1-18-23.11-18.42 0-18.42 23.11-.04 23.4 18.42 23.4zm30.25-39.92q0-9.51 10.18-9.52 10 0 10 9.52t-10 9.49q-10.18 0-10.18-9.49zm10.18 6.78q6.74 0 6.73-6.85t-6.73-6.74q-6.88 0-6.89 6.74t6.89 6.85z"/><path class="b" d="M463.57 75.76l-2.78-44h.94a.89.89 0 0 0 .9-.89v-.27a.9.9 0 0 0-.9-.9h-1.13v-1.35l24.4 4.81a31.75 31.75 0 0 0-7.93-12.11l-16.47 2.95v-.28a4 4 0 0 0-4-4.11h-1.92a4.1 4.1 0 0 0-4.17 4.11v.65l-17.36-3a32.28 32.28 0 0 0-7.38 10.76l24.76-4.16v1.73h-1.13a.9.9 0 0 0-.9.9v.23a.89.89 0 0 0 .9.89h1.14l-2.54 44.4.06.09a31.73 31.73 0 0 0 7 .79 31.4 31.4 0 0 0 8.45-1.16v-.08z" transform="translate(-20.55 -12.39)"/><path class="c" d="M440.67 27.8l-11.31 1.52-.52 8.8 12.3-1.7-.47-8.62zm-12.84 27.52l14.22-1.95-.47-8.63-13.24 1.85-.51 8.73z"/><path class="d" d="M455.49 71.42c2 0 2 1.08 2 2.42v3.16a31.71 31.71 0 0 0 6.08-1.23l-.56-10-7.52.95v4.71z" transform="translate(-20.55 -12.39)"/><path class="d" d="M434.94 28.56l5.85-.76-.45-8.46h-5.4v9.22zm0 17.11l6.91-.93-.47-8.32-6.44.86v8.39z"/><path class="b" d="M435.08 64.52h1.17-1.17z"/><path class="e" d="M441.14 36.42l-.47-8.62.47 8.62z"/><path class="f" d="M434.94 37.28l6.4-.86-.48-8.62-5.92.76v8.72z"/><path class="e" d="M441.58 44.74l.47 8.63"/><path class="f" d="M434.94 54.35l7.42-.98-.48-8.63-6.94.93v8.68z"/><path class="g" d="M454.66 19.6a4.1 4.1 0 0 0-4.18 4.1v6h-1.13a.89.89 0 0 0-.89.89v.24a.89.89 0 0 0 .89.89h6.19v-12.12z" transform="translate(-20.55 -12.39)"/><path class="a" d="M456.57 19.6a4 4 0 0 1 4 4.1v.3l16.56-2.92a31 31 0 0 0-21.66-8.66v7.18h1.08zm28.43 13.57l-24.43-4.81v1.35h1.13a.89.89 0 0 1 .9.89v.24a.89.89 0 0 1-.9.89h-.93l2.78 44a32.32 32.32 0 0 0 23.45-31.04 33.45 33.45 0 0 0-2-11.52z" transform="translate(-20.55 -12.39)"/><path class="h" d="M433.11 21.36l17.37 3v-.66a4.1 4.1 0 0 1 4.18-4.1h.83v-7.21a32.19 32.19 0 0 0-22.38 9zm15.35 9.48v-.24a.89.89 0 0 1 .89-.89h1.13v-1.77l-24.76 4.16a32.37 32.37 0 0 0 22.31 44l2.46-44.4h-1.14a.89.89 0 0 1-.89-.89z" transform="translate(-20.55 -12.39)"/><path class="i" d="M462.62 30.84v-.24a.89.89 0 0 0-.9-.89h-1.13v-6a4 4 0 0 0-4-4.1h-1v12.12h6.18a.89.89 0 0 0 .9-.89z" transform="translate(-20.55 -12.39)"/></svg>