<svg xmlns="http://www.w3.org/2000/svg" width="60" height="60" viewBox="0 0 60 60" fill="none">
    <rect width="60" height="60" rx="12" fill="url(#quickscan-gradient)"/>
    <path d="M30 10L15 18v12c0 7.2 4.8 13.8 12 16.8V46h6v0.8c7.2-3 12-9.6 12-16.8V18l-15-8zm10 20c0 5.6-3.8 10.6-9 12.6L30 43l-1-0.4c-5.2-2-9-7-9-12.6V19.6l10-4.2 10 4.2V30z" fill="white"/>
    <circle cx="30" cy="28" r="6" fill="white" opacity="0.5"/>
    <path d="M30 23c-2.8 0-5 2.2-5 5s2.2 5 5 5 5-2.2 5-5-2.2-5-5-5zm0 8c-1.7 0-3-1.3-3-3s1.3-3 3-3 3 1.3 3 3-1.3 3-3 3z" fill="white"/>
    <defs>
        <linearGradient id="quickscan-gradient" x1="0" y1="0" x2="60" y2="60">
            <stop offset="0%" stop-color="#667eea"/>
            <stop offset="100%" stop-color="#764ba2"/>
        </linearGradient>
    </defs>
</svg>